<?xml version="1.0" encoding="UTF-8"?>
<svg id="Calque_1" data-name="Calque 1" xmlns="http://www.w3.org/2000/svg" viewBox="0 0 544.46 537.53">
  <defs>
    <style>
      .cls-1 {
        stroke-width: 21.23px;
      }

      .cls-1, .cls-2 {
        fill: none;
        stroke: #afb3ce;
        stroke-miterlimit: 10;
      }

      .cls-2 {
        stroke-width: 18.88px;
      }
    </style>
  </defs>
  <circle class="cls-1" cx="382.21" cy="160.07" r="49"/>
  <path class="cls-2" d="M262.42,434.25C179.48,352.23,96.53,270.21,13.59,188.19c36.11-34.05,68.79-46.13,92.44-50.74,30.75-5.99,41.87,1.52,85.49-5.56,15.04-2.44,46.67-7.33,81.67-24.68,11.47-5.68,19.45-10.93,35.41-21.41,33.5-22.01,37.68-29.4,56.1-41.45,43.73-28.59,90.12-32.59,110.41-34.16,23.96-1.86,43.99.06,57.69,2.15,2.92,24.25,4.49,60.46-5.48,101.75-25.55,105.83-94.08,109-114,202.88-14.11,66.48,11.15,107.77-25.96,167.67-11.54,18.62-24.58,31.74-33.89,39.97-30.35-30.12-60.7-60.24-91.05-90.36-11.56,11.92-23.12,23.85-34.69,35.77-13.86-14.2-27.72-28.38-41.59-42.56-35.69-36.48-71.43-72.91-107.23-109.29,10.51-9.76,21.01-19.51,31.52-29.27,50.66,48.45,101.32,96.9,151.98,145.34Z"/>
  <path class="cls-2" d="M376.08,37.49c-99.05,93.56-198.1,187.12-297.15,280.68"/>
  <path class="cls-2" d="M448.33,243.26c-61.97,63.66-123.94,127.32-185.91,190.99"/>
  <polygon class="cls-2" points="158.13 479.55 186.15 427.46 108.26 348.07 62.42 378.95 129.9 449.87 158.13 479.55"/>
  <path class="cls-2" d="M58.51,519.92c1.45-1.42,2.89-2.84,4.34-4.26,22.35-21.93,44.7-43.86,67.05-65.79-12.55-13.19-25.09-26.37-37.64-39.56l-50.67,52.31"/>
</svg>