<?xml version="1.0" encoding="UTF-8"?>
<svg id="Calque_1" data-name="Calque 1" xmlns="http://www.w3.org/2000/svg" viewBox="0 0 273.39 199.16">
  <defs>
    <style>
      .cls-1 {
        fill: #4b2c70;
      }
    </style>
  </defs>
  <path class="cls-1" d="M236.94,121.36l7.37-10.49c9.59-16.56,3.54-37.22-16.31-41.2-1.87-.37-4.23.23-5.79-.52-.47-.22-5.44-6.4-7-7.73-5.54-4.72-13.09-8.57-20.34-9.46l8.21-11.76c12.26-21-5.99-49.12-30.42-37.43-19.7,9.42-17.27,35.44-2.34,48.14,0,.65-9.4,3.07-10.98,3.73-5.8,2.41-12.07,7.18-15.94,12.1-2.97,3.79-4.38,8.43-7.41,11.86-3.67-10.21-11.93-18.92-21.72-23.5-3.7-1.73-7.58-2.45-11.22-4.18,10.98-10.49,16.58-28.59,6.58-41.65-18.45-24.1-57.58,2.9-38.02,33.81.87,1.37,7.45,8.33,6.88,8.88-7.58.72-16.87,4.95-22.36,10.24-1.26,1.23-4.88,6.57-5.67,6.95-1.51.73-3.47.1-5.1.5-26.97,6.75-27.61,34.59-9.62,51.71C14.52,124.03.39,142.51,0,163.43h7.01c.24-16.68,10.12-30.8,26.63-34.71,18.77-4.44,40.92-1.06,50.84,17.17,2.74,5.05,5.12,11.76,5.24,17.55h7.01c-.89-20.17-16.07-39.07-36.45-42.07-.59-.56,5.54-7.47,6.32-8.74,8.67-14.08,6.79-33.62-9.11-41.37,7.54-9.34,17.97-13.02,29.74-13.7,25.73-1.48,41.83,11.29,46.38,36.53l7.28-.05c.63-16.19,10.33-30.92,26.5-34.83,13.61-3.29,31.4-2.47,42.56,6.79.95.78,5.87,5.46,5.24,6.32-15.75,6.51-18.55,25.08-10.63,39.03l7.82,10.04c-21.06,2.8-35.43,21.27-35.74,42.07h7.01c.45-13.28,7.37-26.86,19.85-32.37,9.7-4.28,24.18-5.21,34.42-2.62,16.3,4.11,27.75,18.18,28.45,35h7.01c-.87-20.53-15.78-39.07-36.45-42.07ZM64.32,100.52c-1.41,6.44-9.04,17.85-15.89,19.12-1,.19-4.35-1.72-5.43-2.35-11.34-6.63-18.02-24.44-7.69-34.92,13.94-14.15,33.26-1.25,29.01,18.15ZM88.52,49.33c-7.91-2.73-15.48-15.54-15.53-23.72-.05-7.92,7.33-16.99,15.16-18.33,14.77-2.53,22.04,11.34,18.77,24.37-1.7,6.77-10.36,20.46-18.39,17.68ZM181.54,49.55c-18.02-4.68-23.78-38.67-.87-42.27,17.64-2.78,22.99,17.06,15.88,30.6-2.33,4.43-9.65,13.07-15.01,11.67ZM231.66,115.74c-4.92,4.1-6.66,4.75-12.03,1.56-16.19-9.62-17.62-37.45,3.11-40.62,10.22-1.56,18.67,7.15,19.14,16.99.36,7.52-4.49,17.31-10.22,22.07Z"/>
  <path class="cls-1" d="M147.91,156.41c-.82-.92,3.46-4.31,4.19-5.26,19.73-25.6-2.81-58.58-29.36-41.98-14.64,9.14-13.84,28.64-4.26,41.28.85,1.11,5.66,4.91,4.89,5.97-20.74,3.13-35.44,21.23-35.05,42.07l6.71-.65c.81-19.2,12.66-32.22,31.58-35.01,11.97-1.77,24.34-.94,34.55,5.94,10.46,7.05,15.36,18.18,16.91,30.41l6.99-.69c-2.17-20.55-15.94-38.99-37.15-42.06ZM136.35,154.97c-3.29,0-11.31-7.09-13.28-9.81-9.37-12.95-4.32-33.07,13.38-33.33,14.41-.22,19.07,15.39,14.8,27.25-1.51,4.2-10.41,15.88-14.9,15.88Z"/>
</svg>