<?xml version="1.0" encoding="UTF-8"?>
<svg id="Calque_1" data-name="Calque 1" xmlns="http://www.w3.org/2000/svg" viewBox="0 0 243.43 245.18">
  <defs>
    <style>
      .cls-1 {
        fill: #4b2c70;
        stroke: #4b2c70;
        stroke-miterlimit: 10;
      }
    </style>
  </defs>
  <path class="cls-1" d="M217.97,1.11c-25.48-4.75-58.9,19.32-78.62,33.52-28.86-5.05-58.34,4.18-79.1,24.66-21.63,21.33-31.33,53.14-24.65,82.99-24.78,21.78-58.3,81.74-11.97,99.1,31.92,11.96,59.31-11.03,82.23-29.95,32.49,6.2,63.57-5.68,85.69-29.43,18.06-19.39,22.54-51.13,18.07-76.56,20.21-22.02,58.99-94.9,8.35-104.33ZM123.69,41.61c7.21.31,14.44,1.05,21.38,3.05-.31,18.42-6.52,37.46-16.14,53.14-17.5,28.54-49.19,47.81-82.64,50.34-2.53-7.06-4.09-14.57-4.28-22.1,42.41-7.48,75.91-41.61,81.68-84.43ZM190.06,78.29c.14,2.59-26.27,33.41-30.03,37.59-24.84,27.64-53,52.11-83.17,73.82-11.22-8.44-20.15-20.05-26.69-32.44-.24-.63.33-.99.85-1.18,2.14-.79,6.95-.88,9.61-1.47,52.2-11.71,88.81-53.64,92.99-107.14,15.29,5.5,28.62,16.58,36.44,30.82ZM175.22,49.41c7.71-4.58,15.47-9.37,23.81-12.72,2.55-1.02,12.21-4.85,14.3-3.54.28.57.53,1.2.53,1.84.07,8.16-12.43,28.02-17.47,35.03-.27.39.11.94-.97.7-5.56-8.15-12.36-15.34-20.2-21.31ZM68.91,195.27c-7.51,3.7-14.38,8.71-22.16,11.89-1.8.74-10.25,4.26-11.01,1.61-1.31-4.53,12.79-28.16,16.29-32.86l16.88,19.36ZM44.59,102.04c8.53-31.96,37.28-56.68,70.27-60.11-4.58,37.67-35.73,69.33-73.08,75.29.83-5.11,1.47-10.16,2.81-15.18ZM45.4,236.26c-14.28,1.04-34.31-5.46-36.22-21.94-2.71-23.41,13.4-46.01,28.45-62.21l7.9,17.89c-5.26,10.4-18.54,27.34-18,39.25.83,18.11,27.92,3.22,35.66-1.14,39-22.01,82.46-62.1,111.45-96.16,12.3-14.45,44.93-55.48,47.02-73.12,2.46-20.85-17.48-13.52-28.93-8.44-8.48,3.75-16.28,8.92-24.48,13.21l-17.63-6.06-.32-1.13c7.88-4.66,15.22-10.26,23.24-14.7,14.53-8.03,41.68-20.69,55.73-6.15,14.72,15.23-3.09,50.31-12.31,65.08-24.04,38.51-64.41,77.88-98.21,108.28-18.03,16.21-48.67,45.56-73.35,47.34ZM198.74,152.1c-4.49,14.58-10.45,23-22.16,32.65-17.48,14.39-39.4,22.4-62.27,19.38,24.98-23.02,50.13-46.06,72.81-71.4,4.71-5.26,9.31-11.94,14.12-16.88.53-.54.73-1.05,1.65-.84.61,12.87-.36,24.77-4.15,37.09Z"/>
</svg>