<?xml version="1.0" encoding="UTF-8"?>
<svg id="Calque_1" data-name="Calque 1" xmlns="http://www.w3.org/2000/svg" viewBox="0 0 265.05 266.14">
  <defs>
    <style>
      .cls-1 {
        fill: #49286d;
      }
    </style>
  </defs>
  <path class="cls-1" d="M213.44,190.17l51.61-44.85-52.54-61.12c-10.65-1.24-19.01,4.84-22.72,14.64-2.38,6.31-1.46,16.96-10.83,15.15-8.35-1.62-18.08-10.83-19.36-19.38-1.54-10.22,8.19-10.41,14.78-14.02,8.86-4.85,14.51-12.97,15.06-23.29L139.11,0l-52.01,45.21c-3.41.52-1.99-7.38-2.35-9.73-3.05-19.72-24.78-30.73-42.71-22.17-18.71,8.93-25.55,36.96-9.09,51.34,7.31,6.38,15.98,3.41,19.82,11.76L0,122.35c-.12.71,4.19,5.86,5.11,6.97,11.91,14.34,26.77,32.13,39.63,45.31,4.34,4.45,6.78,7.54,13.74,7.1,17.13-1.08,15.47-24.13,24.2-26.74,9.66-2.88,20.88,6.54,24.05,15.21,6.11,16.71-5.55,13.52-16.2,18.12-7.64,3.3-14.73,10.75-16.87,18.66l51.39,59.16,52.74-44.36c13.83,7.78,4.28,23.81,20.38,31.56,19.86,9.56,44.7-5.62,45.58-27.62.96-24.21-24.05-16.32-30.32-35.55ZM232.77,228.67c-2.01,11.7-14.62,18.17-25.64,16.66-12.88-1.77-8.84-16.29-15.24-25.35-2.47-3.49-11.8-10.64-16.03-10.39-3.86.22-42.58,37.56-49.01,42.41l-41.01-46.71c6.84-11.72,24.78-6.83,30.68-18.34,12.97-25.27-29-58.6-46.23-34.92-3.66,5.03-6.58,20.87-14.02,18.65L14.19,123.16l49.78-43.61c-.08-7.85-5.22-15.47-12.42-18.4-6.63-2.7-11.26-1.19-15.29-9.24-9.18-18.34,12.44-39.59,29.66-27.8,15.56,10.65,1.02,30.75,23.09,32.48l49.16-41.28,39.96,44.81c-1.52,13.15-19.47,12.33-25.75,21.11-13.4,18.71,14.89,50.06,35.5,42.13,13.54-5.21,6.4-24.66,20.12-28.65l42.89,48.29-48.84,43.54c1.57,10.44,6.33,19.2,15.55,24.7,9.15,5.47,17.58,3.23,15.15,17.43Z"/>
</svg>